# xmcd CD database file
#
# Track frame offsets:
#	150
#	15202
#	28884
#	44893
#	57077
#	66743
#	78819
#	91559
#	105069
#	117664
#	134775
#	153002
#	166539
#	180343
#	193066
#
# Disc length: 2735 seconds
#
# Revision: 1
# Processed by: cddbd v1.5.1PL2 Copyright (c) Steve Scherf et al.
# Submitted via: CDex 1.51
#
DISCID=b70aad0f
DTITLE=Various Artist - Gettin' Rowdy [CD2]
DYEAR=2004
DGENRE=Country
TTITLE0=The Fabulous Thunderbirds/Tuff Enuff
TTITLE1=Travis Tritt/T-R-O-U-B-L-E
TTITLE2=Lynyrd Skynyrd/What's Your Name
TTITLE3=John Anderson/Wild and Blue
TTITLE4=Waylon Jennings/Theme From The Dukes Of Hazzard (Good Ol' Boys)
TTITLE5=Shelly West/Jose Cuervo
TTITLE6=Willie Nelson/Bloody Mary Morning
TTITLE7=Gary Stewart/Drinkin' Thing
TTITLE8=Dwight Yoakum/Honky Tonk Man
TTITLE9=Joe Diffie/Prop Me Up Beside The Jukebox (If I Die)
TTITLE10=The Charlie Daniels Band/Long Haired Country Boy
TTITLE11=David Ball/Look What Followed Me Home
TTITLE12=Mark Chesnutt/Brother Jukebox
TTITLE13=Clint Black/Killin' Time
TTITLE14=Hank Williams, Jr./Born To Boogie
EXTD=YEAR: 2004
EXTT0=
EXTT1=
EXTT2=
EXTT3=
EXTT4=
EXTT5=
EXTT6=
EXTT7=
EXTT8=
EXTT9=
EXTT10=
EXTT11=
EXTT12=
EXTT13=
EXTT14=
PLAYORDER=
